<svg width="1440" height="560" viewBox="0 0 1440 560" fill="none" xmlns="http://www.w3.org/2000/svg">
<mask id="mask0_4_2" style="mask-type:luminance" maskUnits="userSpaceOnUse" x="0" y="0" width="1440" height="560">
<path d="M1440 0H0V560H1440V0Z" fill="white"/>
</mask>
<g mask="url(#mask0_4_2)">
<path d="M1440 0H0V560H1440V0Z" fill="#F7F7F6"/>
<g filter="url(#filter0_f_4_2)">
<path d="M699.65 521.36C702.395 521.36 704.62 519.135 704.62 516.39C704.62 513.645 702.395 511.42 699.65 511.42C696.905 511.42 694.68 513.645 694.68 516.39C694.68 519.135 696.905 521.36 699.65 521.36Z" fill="#A5A5A3"/>
</g>
<g filter="url(#filter1_f_4_2)">
<path d="M605.17 543.34C608.025 543.34 610.34 541.025 610.34 538.17C610.34 535.315 608.025 533 605.17 533C602.315 533 600 535.315 600 538.17C600 541.025 602.315 543.34 605.17 543.34Z" fill="#A5A5A3"/>
</g>
<g filter="url(#filter2_f_4_2)">
<path d="M214.795 266.54C217.714 266.54 220.08 264.174 220.08 261.255C220.08 258.336 217.714 255.97 214.795 255.97C211.876 255.97 209.51 258.336 209.51 261.255C209.51 264.174 211.876 266.54 214.795 266.54Z" fill="#A5A5A3"/>
</g>
<g filter="url(#filter3_f_4_2)">
<path d="M194.455 557.02C198.512 557.02 201.8 553.732 201.8 549.675C201.8 545.618 198.512 542.33 194.455 542.33C190.398 542.33 187.11 545.618 187.11 549.675C187.11 553.732 190.398 557.02 194.455 557.02Z" fill="#A5A5A3"/>
</g>
<g filter="url(#filter4_f_4_2)">
<path d="M128.92 94.61C133.305 94.61 136.86 91.0551 136.86 86.67C136.86 82.2849 133.305 78.73 128.92 78.73C124.535 78.73 120.98 82.2849 120.98 86.67C120.98 91.0551 124.535 94.61 128.92 94.61Z" fill="#A5A5A3"/>
</g>
<g filter="url(#filter5_f_4_2)">
<path d="M262.27 516.92C267.329 516.92 271.43 512.819 271.43 507.76C271.43 502.701 267.329 498.6 262.27 498.6C257.211 498.6 253.11 502.701 253.11 507.76C253.11 512.819 257.211 516.92 262.27 516.92Z" fill="#A5A5A3"/>
</g>
<g filter="url(#filter6_f_4_2)">
<path d="M838.99 32.98C842.298 32.98 844.98 30.2982 844.98 26.99C844.98 23.6818 842.298 21 838.99 21C835.682 21 833 23.6818 833 26.99C833 30.2982 835.682 32.98 838.99 32.98Z" fill="#A5A5A3"/>
</g>
<g filter="url(#filter7_f_4_2)">
<path d="M168.44 534.93C172.339 534.93 175.5 531.769 175.5 527.87C175.5 523.971 172.339 520.81 168.44 520.81C164.541 520.81 161.38 523.971 161.38 527.87C161.38 531.769 164.541 534.93 168.44 534.93Z" fill="#A5A5A3"/>
</g>
<g filter="url(#filter8_f_4_2)">
<path d="M1037.28 137.43C1041.88 137.43 1045.6 133.705 1045.6 129.11C1045.6 124.515 1041.88 120.79 1037.28 120.79C1032.69 120.79 1028.96 124.515 1028.96 129.11C1028.96 133.705 1032.69 137.43 1037.28 137.43Z" fill="#A5A5A3"/>
</g>
<g filter="url(#filter9_f_4_2)">
<path d="M985.435 170.76C988.083 170.76 990.23 168.613 990.23 165.965C990.23 163.317 988.083 161.17 985.435 161.17C982.787 161.17 980.64 163.317 980.64 165.965C980.64 168.613 982.787 170.76 985.435 170.76Z" fill="#A5A5A3"/>
</g>
<g filter="url(#filter10_f_4_2)">
<path d="M1424.38 489.76C1427.9 489.76 1430.76 486.904 1430.76 483.38C1430.76 479.856 1427.9 477 1424.38 477C1420.86 477 1418 479.856 1418 483.38C1418 486.904 1420.86 489.76 1424.38 489.76Z" fill="#313130"/>
</g>
<g filter="url(#filter11_f_4_2)">
<path d="M553.915 32.83C558.839 32.83 562.83 28.8386 562.83 23.915C562.83 18.9914 558.839 15 553.915 15C548.991 15 545 18.9914 545 23.915C545 28.8386 548.991 32.83 553.915 32.83Z" fill="#A5A5A3"/>
</g>
<g filter="url(#filter12_f_4_2)">
<path d="M1422.45 203.9C1426.01 203.9 1428.9 201.012 1428.9 197.45C1428.9 193.888 1426.01 191 1422.45 191C1418.89 191 1416 193.888 1416 197.45C1416 201.012 1418.89 203.9 1422.45 203.9Z" fill="#313130"/>
</g>
<g filter="url(#filter13_f_4_2)">
<path d="M1016.16 537.32C1020.11 537.32 1023.32 534.114 1023.32 530.16C1023.32 526.206 1020.11 523 1016.16 523C1012.21 523 1009 526.206 1009 530.16C1009 534.114 1012.21 537.32 1016.16 537.32Z" fill="#A5A5A3"/>
</g>
<g filter="url(#filter14_f_4_2)">
<path d="M82.26 477.83C86.485 477.83 89.91 474.405 89.91 470.18C89.91 465.955 86.485 462.53 82.26 462.53C78.035 462.53 74.61 465.955 74.61 470.18C74.61 474.405 78.035 477.83 82.26 477.83Z" fill="#A5A5A3"/>
</g>
<g filter="url(#filter15_f_4_2)">
<path d="M197.575 16.69C200.173 16.69 202.28 14.5835 202.28 11.985C202.28 9.3865 200.173 7.28 197.575 7.28C194.976 7.28 192.87 9.3865 192.87 11.985C192.87 14.5835 194.976 16.69 197.575 16.69Z" fill="#A5A5A3"/>
</g>
<g filter="url(#filter16_f_4_2)">
<path d="M1261.46 454.91C1266.12 454.91 1269.91 451.125 1269.91 446.455C1269.91 441.785 1266.12 438 1261.46 438C1256.79 438 1253 441.785 1253 446.455C1253 451.125 1256.79 454.91 1261.46 454.91Z" fill="#A5A5A3"/>
</g>
<path d="M1180 297.31L1191.6 348.91L1184.1 361.511L1151.5 360.31L1144.3 347.211L1160.2 296.511C1160.2 295.911 1160.2 295.91 1160.3 295.31C1160.3 294.01 1159.7 292.711 1157.8 292.011C1155.9 291.911 1154.6 292.51 1153.9 294.41L1140.1 338.711L1129.3 318.511L1135.2 298.81V298.211C1135.2 296.911 1134.6 295.61 1132.7 294.91C1131.5 294.21 1129.5 295.41 1128.8 297.31L1124.5 310.011L1116.7 294.91C1116.1 293.61 1114.2 292.911 1112.3 293.511C1110.4 294.111 1110.3 296.611 1110.8 298.611L1118.6 312.91L1105.9 309.31C1104.1 308.61 1102.1 309.811 1101.4 311.711C1101.3 312.911 1101.9 314.911 1103.8 315.611L1123.4 321.41L1134.2 342.31L1089.9 328.511C1088 327.811 1086 329.01 1085.3 330.31C1085.3 332.21 1085.8 334.21 1087.7 334.91L1138.4 350.211L1145.6 363.91L1128.6 390.81L1113.2 390.211L1076.9 351.81C1075.6 350.41 1073.7 350.411 1072.4 351.611C1071.1 352.811 1071 354.711 1072.2 356.111L1104.3 389.91L1080.6 389.011L1067.1 374.511C1065.8 373.111 1063.9 373.11 1061.9 374.31C1059.9 375.51 1060.5 377.411 1061.8 378.711L1071.7 388.711L1054.4 388.111C1052.5 388.011 1051.1 389.91 1051 391.81C1051 393.71 1052.2 395.011 1054.1 395.111L1071.4 395.711L1061.5 405.011C1059.5 406.211 1059.4 408.111 1061.3 409.511C1062.5 410.811 1064.4 410.911 1065.8 409.611L1080.4 396.111L1104 396.91L1069.6 428.31C1068.2 429.61 1068.1 432.111 1069.4 433.51C1070.7 434.91 1072.5 434.91 1073.9 433.61L1113 397.31L1128.3 397.81L1143.3 426.61L1135.1 439.11L1083.5 450.61C1081.5 451.21 1080.8 453.111 1080.8 455.01C1081.3 457.01 1083.2 457.711 1085.1 457.711L1130.4 447.211L1118.1 466.61L1098.1 471.01C1096.2 471.611 1095.4 473.511 1095.4 475.411C1096 476.711 1097.8 478.01 1099.8 477.51L1112.7 474.81L1103.8 489.211C1103.1 490.411 1103.7 492.411 1105 493.711C1106.8 494.411 1108.8 493.81 1109.5 492.61L1118.3 478.211L1121.7 491.711C1122.3 493.011 1124.1 494.41 1125.4 493.81C1127.4 493.91 1128 492.611 1128.1 490.711V490.01L1123.8 470.01L1136 450.61L1146.5 495.81C1147.1 497.81 1148.3 499.111 1150.2 498.51C1152.2 498.01 1152.9 496.711 1152.9 495.411C1152.9 494.811 1152.9 494.81 1152.9 494.81L1140.8 442.51L1148.9 430.01L1181.5 431.211L1188.1 444.211L1172.8 495.51C1172.1 496.811 1173.3 498.711 1174.5 499.411C1176.4 500.111 1178.4 498.91 1179.1 497.01L1192.9 452.711L1203.7 473.01L1197.9 492.61C1197.1 494.51 1197.7 496.41 1199.6 496.51C1201.5 497.21 1203.5 496.01 1204.2 494.81L1207.9 481.411L1215.6 496.51C1216.9 497.811 1218.8 498.511 1220.7 497.911C1221.4 497.311 1222.1 496.11 1222.1 494.81C1222.1 494.11 1222.1 494.111 1221.5 493.51L1213.7 478.51L1227.1 482.11C1229 482.91 1230.3 481.611 1231 480.411C1231 479.711 1231 479.71 1231 479.11C1231.1 477.81 1230.5 476.51 1229.2 475.81L1209.6 470.01L1198.8 449.711L1243.1 463.51C1245 463.611 1247 463.01 1247 461.11C1247.7 460.51 1247.7 460.51 1247.7 459.81C1247.8 458.61 1246.5 457.21 1245.3 456.61L1194 441.211L1187.4 428.211L1204.4 400.611L1219.1 401.211L1255.5 440.31C1256.7 441.61 1259.3 441.71 1260.6 440.51C1261.9 439.311 1262 436.711 1260.8 435.411L1228.7 401.511L1251.8 402.41L1266 417.011C1267.2 418.311 1269.1 418.41 1270.4 417.11C1271.8 415.91 1271.8 414.011 1270.6 412.711L1261.3 402.711L1278.6 403.31C1279.9 403.41 1281.9 402.21 1281.9 400.31C1282 398.31 1280.2 396.41 1278.9 396.31L1261.6 395.711L1271.6 386.41C1272.2 385.811 1272.9 385.211 1272.9 384.611C1272.9 383.311 1272.3 382.611 1271.7 382.011C1270.5 380.611 1268.6 380.61 1267.2 381.81L1252 395.31L1229 394.511L1263.4 363.111C1264.1 362.511 1264.1 361.811 1264.2 360.511C1264.2 359.911 1264.2 359.311 1263.6 358.611C1262.4 357.311 1259.8 357.211 1258.5 358.41L1219.4 394.111L1204.7 393.611L1189.7 365.511L1197.2 352.31L1249.5 340.81C1250.8 340.21 1252.2 339.011 1252.2 337.711C1252.2 337.111 1252.2 337.111 1251.6 337.011C1251.7 335.111 1249.8 333.81 1247.8 334.31L1202.6 344.81L1214.9 324.81L1234.9 320.41C1236.2 319.81 1236.9 318.61 1236.9 317.31L1237 316.611C1237 314.711 1235.2 313.41 1233.2 313.91L1219.7 317.31L1228.5 302.91C1229.2 302.31 1229.2 301.611 1229.2 301.011C1229.3 299.711 1228.7 298.41 1228 298.41C1226.2 297.01 1224.2 297.61 1222.9 298.81L1214 313.211L1211.3 300.31C1210.7 298.41 1208.9 297.011 1206.9 297.611C1205.6 298.211 1204.3 300.11 1204.9 301.41L1209.3 321.41L1197 340.81L1186.5 295.611C1185.9 293.611 1184 292.91 1182.1 292.91C1180.8 293.41 1179.5 295.31 1180 297.31ZM1155.1 367.41L1180 368.31L1183.8 368.511L1185.6 371.81L1197 393.31L1198.8 397.211L1196.8 400.31L1183.8 421.01L1181.8 424.11L1178 424.01L1153 423.11L1149.2 422.911L1147.4 419.711L1136 398.111L1134.2 394.81L1136.3 391.111L1149.2 370.41L1151.2 367.31L1155.1 367.41Z" fill="#A5A5A3"/>
<path d="M715.606 356.81L768.506 356.91L779.106 367.01L770.706 398.51L756.406 402.71L710.506 376.01C709.906 375.81 709.906 375.81 709.306 375.71C708.006 375.31 706.606 375.61 705.506 377.31C705.006 379.21 705.306 380.61 707.006 381.71L747.206 404.91L725.106 411.01L707.206 400.91L706.606 400.81C705.406 400.51 704.006 400.71 702.806 402.41C701.906 403.51 702.606 405.71 704.306 406.81L715.706 413.81L699.406 418.11C698.006 418.41 696.906 420.11 697.006 422.11C697.106 424.11 699.606 424.81 701.606 424.61L717.406 420.21L711.006 431.71C709.906 433.41 710.606 435.61 712.306 436.71C713.606 437.01 715.606 436.91 716.706 435.21L726.706 417.31L749.506 411.41L726.206 451.71C725.106 453.31 725.906 455.51 727.006 456.51C728.806 457.01 730.806 456.81 731.906 455.11L758.006 409.11L773.006 405.11L795.506 427.61L791.606 442.41L746.006 469.51C744.506 470.41 744.006 472.21 744.906 473.81C745.806 475.41 747.706 475.81 749.206 474.91L789.306 451.11L783.206 474.01L766.006 484.01C764.506 484.91 764.006 486.81 764.706 489.01C765.406 491.21 767.506 491.01 769.006 490.11L780.906 482.71L776.506 499.41C776.006 501.21 777.606 502.91 779.406 503.41C781.306 503.91 782.806 503.01 783.306 501.21L787.806 484.41L794.606 496.21C795.306 498.41 797.206 498.91 798.906 497.31C800.506 496.41 801.006 494.61 800.106 493.01L790.006 475.81L796.106 452.91L819.106 493.41C820.106 495.01 822.506 495.61 824.106 494.71C825.706 493.81 826.206 491.91 825.206 490.41L798.406 444.21L802.306 429.41L833.606 421.11L844.006 431.81L843.906 484.71C844.106 486.81 845.806 487.91 847.606 488.41C849.606 488.21 850.806 486.51 851.206 484.71L850.906 438.31L867.206 454.51L867.006 475.01C867.206 477.01 868.906 478.11 870.706 478.61C872.106 478.31 873.906 476.71 873.706 474.71L873.906 461.51L886.006 473.31C887.106 474.31 889.106 474.21 890.706 473.21C891.806 471.61 891.606 469.51 890.606 468.61L878.506 456.81L892.406 456.51C893.806 456.21 895.606 454.71 895.306 453.31C895.806 451.41 894.706 450.51 892.806 450.01L892.206 449.81L871.706 449.71L855.506 433.51L901.906 433.21C903.906 433.11 905.506 432.21 905.406 430.11C905.206 428.11 904.206 427.21 902.906 426.81C902.306 426.71 902.306 426.71 902.306 426.71L848.606 427.01L838.206 416.41L846.506 384.81L860.706 381.31L907.406 407.51C908.506 408.41 910.606 407.71 911.606 406.61C912.706 404.91 911.906 402.71 910.306 401.61L870.006 378.41L892.206 372.41L910.006 382.41C911.706 383.51 913.806 383.41 914.206 381.51C915.406 379.81 914.606 377.61 913.506 376.71L901.406 370.21L917.706 365.91C919.306 365.01 920.406 363.31 920.306 361.31C919.806 360.51 918.706 359.51 917.506 359.21C916.906 359.01 916.906 359.01 916.106 359.51L899.706 363.81L906.306 351.61C907.406 349.91 906.506 348.31 905.406 347.41C904.806 347.21 904.806 347.21 904.106 347.11C902.906 346.71 901.506 347.01 900.606 348.11L890.506 366.01L868.406 372.01L891.606 331.81C892.106 330.01 892.006 328.01 890.106 327.51C889.706 326.71 889.706 326.71 889.106 326.51C887.806 326.21 886.306 327.11 885.306 328.21L859.106 374.91L844.906 378.41L821.806 355.71L825.506 341.51L871.706 314.71C873.206 313.71 873.906 311.31 873.006 309.71C872.106 308.11 869.606 307.51 868.006 308.41L828.006 332.21L833.906 310.01L851.206 299.31C852.806 298.41 853.306 296.61 852.406 295.01C851.506 293.41 849.606 292.91 848.006 293.81L836.306 300.71L840.706 284.01C841.006 282.71 840.306 280.51 838.406 280.11C836.606 279.61 834.206 280.91 833.906 282.21L829.506 298.91L822.706 287.11C822.206 286.41 821.806 285.61 821.106 285.41C819.906 285.11 819.106 285.51 818.306 286.01C816.806 286.91 816.306 288.81 817.206 290.31L827.006 308.21L821.206 330.41L798.106 289.91C797.706 289.11 797.006 289.01 795.806 288.61C795.206 288.51 794.606 288.31 793.806 288.81C792.206 289.71 791.606 292.21 792.506 293.71L818.706 339.71L815.006 353.91L784.306 362.41L773.106 352.11L773.306 298.61C773.006 297.21 772.106 295.61 770.906 295.31C770.306 295.11 770.306 295.11 770.106 295.81C768.206 295.31 766.506 296.81 766.606 298.81L766.906 345.21L750.106 328.91L750.206 308.41C749.906 307.01 748.806 306.01 747.606 305.71L747.006 305.51C745.106 305.01 743.406 306.61 743.506 308.61L743.806 322.61L731.706 310.81C731.206 310.01 730.606 309.81 730.006 309.71C728.806 309.31 727.406 309.61 727.206 310.21C725.506 311.81 725.606 313.81 726.506 315.41L738.606 327.21L725.406 327.01C723.406 327.11 721.706 328.61 721.806 330.71C722.106 332.11 723.606 333.81 725.006 333.51L745.506 333.61L761.806 349.81L715.306 350.11C713.306 350.31 712.206 352.01 711.706 353.81C712.006 355.21 713.506 356.91 715.606 356.81ZM778.506 396.61L784.906 372.51L785.906 368.81L789.506 367.71L813.006 361.41L817.206 360.51L819.806 363.21L837.106 380.31L839.706 383.01L838.706 386.71L832.406 410.81L831.406 414.61L827.806 415.61L804.306 422.01L800.706 423.01L797.506 420.21L780.106 403.01L777.506 400.31L778.506 396.61Z" fill="#A5A5A3"/>
<path d="M491.54 35.8233L444.14 54.7233L427.14 47.0233L443.14 40.7233C445.04 40.4233 445.54 38.5233 445.24 36.6233C444.54 35.4233 442.44 34.3233 441.24 35.1233L419.04 43.4233L402.14 36.3233L417.04 25.6233L440.64 29.4233L441.24 29.3233C442.54 29.1233 443.64 27.7233 444.14 26.4233C443.94 24.5233 443.14 23.3233 441.14 22.9233L424.14 20.3233L439.04 9.62331L489.44 16.7233L490.14 17.3233C491.44 17.2233 492.54 15.7233 493.04 14.4233C493.44 12.4233 491.94 10.6233 490.04 10.9233L446.14 4.32331L463.94 -9.37669L483.54 -6.37669C483.54 -6.37669 483.54 -6.37669 484.24 -6.47669C485.44 -6.67669 486.64 -7.37668 487.14 -8.77668C486.94 -10.6767 486.14 -12.4767 484.14 -12.8767L471.04 -14.6767L484.14 -24.4767C485.94 -25.3767 485.74 -27.2767 484.94 -28.4767C484.04 -30.2767 482.14 -30.6767 480.34 -29.2767L467.24 -19.9767L469.64 -32.5767C469.44 -34.4767 468.54 -36.2767 466.64 -36.0767C464.74 -36.4767 463.54 -35.6767 463.04 -33.6767L460.14 -14.0767L442.34 -1.07668L448.84 -45.6767C449.34 -46.9767 447.84 -48.7767 445.84 -49.1767C444.64 -48.9767 442.74 -48.1767 442.34 -46.1767L435.14 4.22332L420.34 14.9233L422.84 -2.07668C423.24 -4.07668 421.84 -5.17669 419.94 -5.67669C418.54 -6.07669 416.74 -4.67668 416.34 -3.27668L413.14 20.2233L398.34 31.6233L396.24 13.1233L410.94 -5.27668C412.04 -6.67668 411.84 -8.57669 410.44 -9.67669C409.64 -10.8767 407.04 -10.5767 405.94 -9.17669L395.24 4.22332L393.14 -14.1767L425.34 -53.8767C426.54 -55.3767 426.24 -57.2767 424.84 -58.3767C423.44 -59.4767 421.54 -59.2767 420.44 -57.8767L392.14 -23.0767L389.74 -44.6767L402.14 -60.2767C403.24 -61.6767 403.04 -63.5767 401.64 -64.7767C400.14 -65.8767 398.24 -65.6767 397.14 -64.2767L388.64 -54.2767L386.84 -70.1767C386.64 -72.0767 385.14 -73.1767 383.24 -72.9767C381.34 -72.7767 380.24 -71.3767 380.44 -69.4767L382.24 -53.5767L372.34 -61.4767C370.94 -62.5767 369.04 -62.3767 367.94 -60.8767C366.84 -59.3767 366.94 -57.5767 368.44 -56.4767L383.24 -44.6767L385.74 -22.3767L351.14 -49.9767C349.64 -51.1767 347.74 -50.8767 346.64 -49.4767C345.54 -48.0767 345.74 -46.1767 347.14 -45.0767L386.84 -13.4767L388.84 4.92332L375.44 -5.77668C374.04 -6.87668 372.14 -6.67668 370.94 -5.27668C369.84 -3.77668 370.04 -1.87668 371.44 -0.77668L389.94 13.8233L391.94 31.7233L375.64 24.5233L366.74 2.32331C365.94 1.12331 363.84 0.123314 362.64 0.823311C360.84 1.72331 360.34 3.02332 360.54 4.92332L366.84 21.0233L350.64 13.8233L331.74 -33.6767C330.84 -35.4767 329.54 -35.9767 327.64 -35.7767C325.74 -34.8767 325.34 -32.8767 325.44 -31.6767L341.84 10.3233L321.44 1.02331L314.24 -16.8767C314.04 -18.7767 312.04 -19.1767 310.14 -18.9767C308.94 -18.1767 307.94 -16.0767 308.74 -14.2767L313.34 -2.57668L298.44 -8.57668C297.04 -9.77668 295.24 -8.87669 294.14 -6.87669C293.64 -5.47668 294.54 -3.67669 295.84 -3.17669L310.74 3.52331L298.44 8.12331C296.64 9.02332 296.14 11.0233 296.94 12.2233C297.14 14.1233 298.54 14.6233 299.74 14.4233C300.44 14.3233 300.44 14.3233 301.04 14.3233L318.94 7.12331L339.34 16.4233L298.04 32.6233C296.04 32.9233 295.64 34.8233 295.84 36.7233C296.64 37.9233 298.04 38.4233 299.24 38.3233C299.94 38.2233 299.94 38.2233 299.94 38.2233L348.04 19.9233L364.34 27.1233L348.34 33.4233C346.44 34.2233 345.94 35.6233 346.24 37.5233C346.94 38.7233 348.44 39.8233 349.64 39.7233C350.34 39.6233 350.34 39.6233 350.94 39.5233L373.14 30.6233L389.34 37.7233L375.14 48.4233L351.64 45.2233C349.64 44.8233 347.84 46.3233 347.34 47.7233C347.54 49.6233 348.44 51.4233 350.34 51.2233L367.34 53.8233L353.24 65.0233L302.04 57.3233C300.74 56.8233 298.94 58.3233 298.44 59.6233C298.74 61.6233 299.54 63.4233 301.54 63.8233L345.44 70.4233L327.54 83.4233L308.54 80.4233C306.54 80.0233 304.84 81.5233 305.04 83.4233C304.54 84.7233 305.44 86.6233 307.34 87.0233L320.44 88.7233L307.44 98.6233C306.24 99.3233 305.74 101.323 306.64 103.223C307.34 103.723 308.64 104.223 309.94 104.123C309.94 104.123 310.64 104.023 311.24 103.923L324.24 94.1233L322.54 107.223C322.04 108.523 323.54 110.323 324.84 110.823C325.54 110.723 325.54 110.723 325.54 110.723C327.44 110.523 328.54 109.023 328.44 107.823L331.44 88.8233L349.14 75.1233L342.64 119.723C342.84 121.623 343.64 122.823 345.64 123.223L346.24 123.123C347.54 123.023 348.74 122.223 349.14 120.223L356.94 69.8233L371.24 59.1233L368.64 76.2233C368.84 78.1233 369.74 79.9233 371.64 79.7233C371.64 80.3233 372.34 80.3233 372.34 80.3233C373.54 80.1233 374.74 78.7233 375.24 77.3233L378.34 53.8233L393.24 43.1233L395.24 60.9233L380.54 79.3233C379.44 80.7233 379.74 83.3233 381.14 84.4233C382.54 84.9233 384.44 84.7233 385.64 83.9233L396.24 69.8233L398.34 88.3233L366.74 127.923C365.64 129.323 365.84 131.223 367.24 132.423C368.64 133.523 370.64 133.323 371.74 131.823L399.34 97.2233L401.84 119.423L390.04 134.323C388.94 135.723 389.14 137.623 390.54 138.723C391.94 139.823 393.84 139.623 394.94 138.223L402.84 128.323L404.64 144.223C404.94 146.123 406.34 147.223 408.24 147.023C410.14 146.823 411.24 145.423 411.04 143.523L409.24 127.623L419.74 135.423C420.54 136.023 421.24 136.523 421.84 136.523C422.44 136.423 423.64 135.623 424.24 134.923C425.34 133.523 425.14 131.623 423.74 130.523L408.24 118.723L405.74 96.4233L441.04 124.023C441.74 124.623 442.44 125.123 443.04 125.023C443.74 125.023 444.94 124.223 445.44 123.523C446.64 122.123 446.44 120.223 444.94 119.023L404.74 87.5233L402.64 69.1233L416.14 80.4233C416.84 81.0233 418.14 80.9233 418.74 80.8233C419.34 80.7233 420.04 80.6233 420.54 79.9233C421.74 78.5233 421.44 76.0233 420.04 75.5233L401.64 60.2233L399.54 42.4233L416.44 49.5233L424.84 71.7233C425.54 72.9233 427.04 74.1233 428.24 73.9233C428.94 73.8233 428.94 73.8233 428.84 73.2233C430.74 73.0233 431.84 70.9233 430.94 69.1233L424.64 53.1233L441.54 60.2233L459.84 108.323C460.64 109.523 462.04 110.023 463.24 109.923C463.94 109.823 463.94 109.823 463.94 109.823C465.74 108.923 466.84 107.523 466.04 105.723L449.64 63.8233L470.04 73.0233L477.24 90.9233C478.04 92.7233 479.44 93.2233 480.64 93.1233L481.34 93.0233C483.14 92.2233 483.54 90.2233 483.44 88.9233L478.14 76.6233L493.14 83.3233C493.74 83.2233 494.34 83.2233 495.04 83.1233C495.64 83.0233 496.84 82.2233 497.44 81.5233C497.84 79.5233 497.64 77.6233 495.64 77.2233L480.74 70.5233L493.04 65.9233C494.94 65.1233 495.34 63.1233 495.14 61.8233C494.34 60.0233 492.34 59.6233 490.44 59.8233L472.54 67.0233L452.24 58.3233L493.54 42.0233C495.44 41.2233 496.44 39.1233 495.64 37.9233C494.84 36.1233 493.44 35.0233 491.54 35.8233Z" fill="#A5A5A3"/>
<path d="M99.8 555.5L108.8 530.6L115.3 527.3L128.7 536.5L128.3 544L108 561.1C107.8 561.4 107.8 561.4 107.6 561.6C107.2 562.2 107.1 562.9 107.8 563.7C108.5 564.2 109.3 564.3 110.1 563.7L127.8 548.7L126.9 560.1L119.2 566.8L119 567.1C118.6 567.6 118.5 568.3 119.1 569.2C119.5 569.8 120.6 569.8 121.4 569.2L126.6 565L125.9 573.4C125.8 574.1 126.4 574.9 127.4 575.2C128.4 575.5 129.1 574.4 129.4 573.5L129.9 565.3L134.3 570.3C134.9 571.1 136 571.1 136.9 570.5C137.2 570 137.5 569 136.9 568.2L130.2 560.4L131.2 548.7L146.2 566.4C146.8 567.3 148 567.3 148.6 566.9C149.2 566.1 149.4 565.2 148.8 564.4L131.6 544.3L132.2 536.6L146.6 529.8L152.9 534.1L158 560.1C158.1 561 158.9 561.6 159.8 561.4C160.7 561.2 161.2 560.4 161.1 559.6L156.6 536.7L166.4 543.4L168.2 553.2C168.3 554.1 169.1 554.6 170.3 554.6C171.5 554.6 171.7 553.7 171.6 552.8L170.1 545.9L177.2 550.8C178 551.4 179 550.9 179.6 550.2C180.1 549.4 180 548.5 179.2 547.9L172 543L178.7 541.8C179.9 541.8 180.4 541 180 539.9C179.8 539.1 179 538.5 178.1 538.7L168.4 540.5L158.6 533.8L181.6 529.8C182.5 529.6 183.2 528.5 183 527.7C182.8 526.9 182.1 526.2 181.2 526.4L154.9 531.2L148.6 526.9L150 510.8L156.8 507.7L181.7 516.6C182.6 516.9 183.4 516.3 184 515.5C184.3 514.5 183.7 513.7 182.9 513.2L161 505.5L171.3 500.6L181 504.1C181.9 504.4 182.7 503.8 183.3 503C183.4 502.3 183 501.2 182 500.9L175.8 498.6L183.4 494.9C184 494.6 184.3 493.6 184.1 492.7C183.5 491.9 182.6 491.6 181.9 492L174.3 495.7L176.6 489C176.7 488.3 176.2 487.3 175.5 487.2C174.7 486.6 174.1 487 173.6 487.8L173.4 488L169.9 497.6L159.5 502.5L167.2 480.6C167.5 479.7 167.3 478.8 166.3 478.5C165.4 478.2 164.7 478.6 164.4 479.1C164.2 479.4 164.2 479.4 164.2 479.4L155.3 504.7L148.5 507.8L135.1 498.6L135.8 491.3L156 473.7C156.6 473.4 156.7 472.2 156.3 471.6C155.7 470.8 154.5 470.8 153.7 471.4L136 486.4L136.9 475L144.6 468.2C145.4 467.6 145.7 466.7 144.9 466.1C144.3 465.3 143.2 465.3 142.5 465.6L137.4 470.3L138.2 461.9C138 461 137.4 460.2 136.4 459.9C136 460 135.3 460.3 135 460.8C134.8 461.1 134.8 461.1 134.9 461.5L134.1 470L129.5 464.8C128.9 464 128 464.2 127.4 464.5C127.2 464.8 127.2 464.8 127 465.1C126.7 465.6 126.6 466.3 126.9 466.9L133.6 474.7L132.8 486.1L117.7 468.4C117 467.8 116 467.6 115.4 468.4C115 468.4 115 468.4 114.8 468.7C114.4 469.2 114.6 470.1 115 470.7L132.5 491L131.8 498.2L117.2 505.3L111.1 501.1L106.3 474.9C106.1 474 105.1 473.3 104.2 473.4C103.3 473.5 102.6 474.7 102.7 475.5L107.2 498.4L97.7 491.9L95.6 481.9C95.5 481 94.7 480.5 93.8 480.6C92.9 480.8 92.3 481.6 92.5 482.5L93.7 489.2L86.6 484.3C86.1 483.9 84.9 483.9 84.4 484.7C83.9 485.5 84.1 486.8 84.6 487.2L91.7 492.1L85.1 493.3C84.6 493.4 84.2 493.5 84 493.7C83.6 494.3 83.7 494.7 83.8 495.2C84 496 84.8 496.6 85.6 496.4L95.7 494.8L105.2 501.3L82.2 505.3C81.8 505.4 81.6 505.7 81.2 506.2C81.1 506.5 80.9 506.7 81 507.2C81.1 508.1 82.2 508.8 83.1 508.6L109.1 504L115.2 508.2L114 524.1L107.3 527.6L82.1 518.5C81.4 518.4 80.5 518.5 80.2 519.1C80 519.3 80 519.3 80.3 519.5C79.7 520.3 80.1 521.4 81.1 521.7L103 529.3L92.5 534.5L82.8 531C82.1 530.9 81.5 531.2 81.1 531.8L81 532C80.4 532.8 80.8 533.9 81.8 534.2L88.4 536.4L80.8 540.1C80.4 540.2 80.2 540.5 80 540.7C79.7 541.2 79.6 542 79.8 542.1C80.3 543.2 81.2 543.5 82.1 543.3L89.7 539.6L87.4 545.8C87.1 546.8 87.6 547.8 88.5 548.1C89.2 548.2 90.3 547.8 90.4 547.1L93.9 537.5L104.3 532.6L96.6 554.5C96.3 555.4 96.9 556.2 97.7 556.8C98.4 556.9 99.5 556.4 99.8 555.5ZM129.2 532.6L118.9 525.5L117.3 524.4L117.4 522.5L118.4 510.4L118.7 508.3L120.4 507.5L131.4 502.2L133.1 501.5L134.6 502.5L144.9 509.6L146.5 510.7L146.4 512.6L145.4 524.7L145.3 526.6L143.4 527.6L132.4 532.9L130.7 533.6L129.2 532.6Z" fill="#A5A5A3"/>
<path d="M416.3 407.182L406.4 390.382L418.2 389.782C419.4 389.782 420.7 388.582 421 386.882C420.6 385.382 419.4 384.082 417.9 384.482L403.1 384.682L394.8 371.882L425.6 371.482C427.1 371.082 428.4 369.782 428.5 368.582C428.3 366.582 427.1 365.282 425.6 365.682L391.5 366.282L379.4 346.282L406.1 348.682L389.6 327.582L412.9 326.882L430.9 355.882C430.6 356.382 431.1 356.682 431.6 356.882C432.6 357.482 433.9 357.482 434.9 356.782C435.9 356.082 436.2 354.282 435.8 352.782L419.4 326.682H434.7L442.5 339.282C442.8 339.982 443.3 340.282 443.7 340.582C444.2 340.782 445.5 340.882 446.5 340.182C447.5 339.482 447.9 337.682 447.1 336.682L441.2 326.382L460.8 325.582C462.6 325.982 463.4 324.482 463.7 322.682C463.7 321.482 462.5 320.182 460.5 320.382L441.2 320.682L446.8 310.382C447.6 308.882 446.7 307.082 445.7 306.582C444.2 305.782 442.7 306.182 441.9 307.682L434.7 320.982L419.4 320.882L433.9 294.382C434.7 292.882 434.2 291.382 432.8 290.582C431.8 289.982 429.8 290.182 429 291.682L412.9 321.182L389.5 321.782L404.6 300.082L378.4 303.582L389.7 282.982L423.3 282.182C425.3 281.982 426.1 280.482 426.1 279.282C426.2 277.982 425 276.682 423.2 276.382L392.6 277.582L399.9 264.282L414.9 263.582C416.7 263.882 418 262.682 417.8 260.682C417.8 259.482 416.6 258.182 414.6 258.282L403.1 258.382L412.5 241.182C413.3 239.682 412.8 238.182 411.4 237.382C410 236.582 408.4 237.082 407.6 238.482L398.2 255.682L392 245.982C391.1 244.182 389.3 243.882 388.3 244.582C386.5 245.482 386.2 247.282 387.4 248.582L395 261.582L387.7 274.882L372.1 248.482C370.9 247.182 369.2 246.882 368.1 247.582C366.4 248.582 366 250.282 367.2 251.582L384.8 280.282L373.5 300.982L362.3 276.982L352.2 301.482L340.1 281.482L356.2 251.982C357 250.482 356.1 248.682 355.1 248.182C353.6 247.382 352.1 247.782 351.3 249.282L336.5 276.282L328.5 262.982L335.7 249.682C336.5 248.282 336.1 246.682 334.6 245.882C333.6 245.382 331.6 245.582 330.8 247.082L325.2 257.382L315 240.982C314.1 239.182 312.3 238.882 311 240.082C310 240.782 309.2 242.282 310.4 243.582L320.3 260.482L308.5 260.982C307.3 260.982 306 262.182 305.9 263.482C305.9 264.682 306.6 265.682 307.1 265.982C307.6 266.282 308.1 266.482 308.8 266.282L323.6 266.082L331.9 278.882L301.1 279.282C299.6 279.782 298.3 280.982 298.2 282.182C298.2 283.482 298.9 284.482 299.9 284.982C300.4 285.282 300.4 285.282 301.1 285.082L335.2 284.582L347.3 304.482L320.6 302.082L337.1 323.182L313.8 323.882L295.8 294.882C295.1 293.882 293.6 293.082 291.8 293.982C290.8 294.682 290.5 296.482 290.9 297.982L307.3 324.082H292L284.2 311.482C283.7 309.982 282 309.682 280.2 310.582C279.1 311.382 278.8 313.082 279.3 314.582L285.4 324.382L265.9 325.182C264.1 324.882 263.3 326.282 263 328.082C263.2 328.782 263.9 329.882 264.4 330.082C264.9 330.382 265.4 330.682 266.2 330.382L285.5 330.082L279.9 340.482C279.1 341.882 280 343.682 281 344.282C282.4 345.082 284 344.582 284.8 343.082L292 329.882H307.3L292.8 356.482C292 357.882 292.5 359.482 293.9 360.282C295.3 361.082 296.9 360.582 297.7 359.082L313.8 329.582L337.2 328.982L322.1 350.682L348.3 347.182L337 367.782L303.4 368.582C301.4 368.782 300.6 370.282 300.5 371.482C300.5 372.782 301.7 374.082 303.5 374.382L333.8 373.682L326.8 386.482L311.8 387.182C310 386.882 308.7 388.082 308.9 390.082C308.9 391.382 310.1 392.682 311.8 392.982L323.6 392.382L314.2 409.582C313.4 411.082 313.9 412.582 315.3 413.382C316.7 414.182 318.3 413.782 319.1 412.282L328.5 395.082L334.7 404.782C334.9 405.582 335.4 405.882 335.9 406.082C336.9 406.682 337.6 406.382 338.4 406.182C340.2 405.282 340.5 403.482 339.3 402.182L331.7 389.182L339 375.882L354.6 402.282C355.1 402.482 355.6 402.782 356 403.082C357 403.582 357.8 403.382 358.6 403.182C360.3 402.182 360.7 400.482 359.4 399.182L341.9 370.482L353.2 349.882L364.4 373.782L374.5 349.382L386.6 369.282L370.5 398.782C369.7 400.282 370.6 402.082 371.6 402.582C373.1 403.382 374.6 402.982 375.4 401.482L389.9 374.982L398.2 387.782L391 401.082C390.1 402.582 390.6 404.082 392.1 404.882C393.6 405.682 395.1 405.182 395.9 403.782L401.5 393.382L411.7 409.782C411.9 410.582 412.4 410.882 412.9 411.082C413.4 411.382 414.6 411.482 415.7 410.682C416.7 409.982 417.5 408.482 416.3 407.182ZM364.1 360.282L355 340.582L333.6 343.582L346.1 325.482L332.9 308.782L354.4 310.282L362.6 290.482L371.7 310.182L393.1 307.182L380.9 324.782L393.8 341.982L372.6 339.982L364.1 360.282Z" fill="#A5A5A3"/>
<path d="M1362.93 1.8L1361.73 15.7L1354.63 11.2C1353.93 10.6 1352.63 10.8 1351.73 11.7C1351.33 12.7 1351.53 14 1352.63 14.4L1361.23 20.4L1360.73 31.3L1342.73 18.7C1341.63 18.3 1340.33 18.5 1339.83 19.2C1339.13 20.4 1339.23 21.7 1340.33 22.1L1360.33 35.9L1359.03 52.5L1344.53 40L1345.33 59.2L1331.53 49.9L1333.13 25.5C1333.43 25.4 1333.33 25 1333.13 24.7C1332.73 23.9 1332.03 23.4 1331.13 23.4C1330.23 23.4 1329.33 24.2 1329.03 25.3L1327.63 47.3L1318.73 40.9L1319.43 30.4C1319.63 29.8 1319.43 29.5 1319.33 29.1C1319.13 28.8 1318.43 28.2 1317.53 28.2C1316.63 28.2 1315.73 29.1 1315.73 30L1314.83 38.4L1303.13 30.7C1302.33 29.8 1301.23 30.3 1300.33 31.2C1299.73 31.9 1299.93 33.2 1301.13 33.9L1312.53 41.7L1304.93 45.4C1303.83 45.9 1303.63 47.3 1304.03 48.1C1304.53 49.1 1305.63 49.5 1306.63 49L1316.43 44.3L1325.23 50.7L1305.83 60.1C1304.73 60.6 1304.33 61.7 1304.93 62.7C1305.23 63.5 1306.43 64.2 1307.53 63.7L1329.13 53.2L1343.03 62.5L1325.23 68.9L1341.93 77.7L1326.73 85L1306.93 71.5C1305.63 70.8 1304.63 71.3 1304.03 72C1303.53 72.7 1303.63 74 1304.53 74.9L1322.83 87L1313.13 91.7L1304.03 85.8C1303.13 84.9 1301.93 85.1 1301.13 86.3C1300.63 87 1300.83 88.3 1302.03 89L1308.73 93.7L1296.13 99.8C1295.03 100.4 1294.73 101.4 1295.23 102.5C1295.73 103.6 1296.83 104 1297.93 103.4L1310.53 97.3L1310.03 105.6C1309.83 107 1310.73 107.9 1311.63 107.9C1313.03 108.1 1313.93 107.2 1313.83 106L1314.83 95.3L1324.53 90.6L1322.63 112.4C1322.83 113.6 1323.73 114.5 1324.63 114.5C1326.03 114.7 1326.93 113.8 1326.73 112.6L1328.53 88.6L1343.63 81.3L1340.13 99.9L1356.23 89.9L1354.93 106.5L1333.33 117C1332.23 117.5 1332.03 118.9 1332.43 119.6C1332.93 120.7 1334.03 121.1 1335.03 120.6L1354.83 111L1354.03 122.1L1344.33 126.8C1343.23 127.3 1342.83 128.4 1343.33 129.4C1343.73 130.2 1344.93 130.9 1346.03 130.4L1353.63 126.7L1352.73 140.5C1352.53 141.9 1353.33 142.8 1354.63 142.7C1355.53 142.7 1356.63 142.1 1356.43 140.9L1357.73 127L1364.83 131.5C1365.53 132.1 1366.73 131.9 1367.33 131.2C1367.83 130.5 1367.83 129.6 1367.73 129.2C1367.53 128.9 1367.33 128.5 1366.83 128.3L1358.13 122.3L1358.63 111.4L1376.73 124C1377.73 124.4 1379.03 124.2 1379.53 123.5C1380.13 122.8 1380.13 121.9 1379.73 121.2C1379.63 120.8 1379.63 120.8 1379.03 120.6L1359.03 106.8L1360.33 90.1L1374.83 102.7L1374.03 83.5L1387.83 92.8L1386.23 117.1C1386.23 118 1386.83 119.1 1388.23 119.3C1389.13 119.3 1390.03 118.4 1390.43 117.4L1391.73 95.4L1400.63 101.8L1399.93 112.3C1399.53 113.4 1400.43 114.3 1401.83 114.5C1402.73 114.5 1403.63 113.6 1404.03 112.5L1404.53 104.3L1416.23 112C1417.13 112.9 1418.23 112.4 1419.13 111.5C1419.23 111 1419.33 110.1 1419.13 109.7C1418.93 109.3 1418.73 109 1418.23 108.8L1406.93 101L1414.43 97.3C1415.53 96.8 1415.73 95.3 1415.33 94.6C1414.83 93.5 1413.83 93.2 1412.73 93.7L1403.03 98.4L1394.13 92L1413.53 82.6C1414.63 82.1 1415.03 81 1414.53 79.9C1414.03 78.8 1412.93 78.5 1411.83 79L1390.23 89.5L1376.43 80.2L1394.23 73.8L1377.53 65L1392.63 57.6L1412.43 71.2C1413.73 71.9 1414.83 71.4 1415.33 70.7C1415.93 69.9 1415.73 68.7 1414.83 67.8L1396.93 55.6L1406.33 51L1415.33 56.9C1416.23 57.8 1417.53 57.6 1418.23 56.4C1418.73 55.7 1418.63 54.4 1417.73 53.5L1410.63 48.9L1423.23 42.9C1424.33 42.3 1424.63 41.3 1424.13 40.2C1423.63 39.1 1422.53 38.7 1421.53 39.2L1408.83 45.3L1409.33 37.1C1409.53 36.6 1409.33 36.2 1409.23 35.9C1408.83 35.1 1408.33 35 1407.73 34.8C1406.33 34.6 1405.43 35.5 1405.63 36.7L1404.53 47.4L1394.83 52.1L1396.73 30.3C1396.53 30 1396.43 29.6 1396.23 29.3C1395.83 28.5 1395.33 28.3 1394.83 28.2C1393.33 28 1392.43 28.8 1392.63 30.1L1390.83 54L1375.73 61.4L1379.23 42.8L1363.13 52.8L1364.43 36.2L1386.03 25.7C1387.13 25.2 1387.33 23.8 1387.03 23C1386.43 22 1385.43 21.6 1384.33 22.1L1364.83 31.5L1365.33 20.6L1375.13 15.9C1376.23 15.4 1376.53 14.3 1376.03 13.2C1375.53 12.1 1374.43 11.8 1373.33 12.3L1365.83 16L1366.73 2.2C1366.93 1.7 1366.73 1.3 1366.53 0.900002C1366.33 0.600002 1365.63 0 1364.73 0C1363.83 0 1362.83 0.500003 1362.93 1.8ZM1373.73 50.8L1370.83 65.9L1384.53 73.1L1369.83 78.5L1370.53 93.7L1358.63 83.9L1345.63 91.9L1348.53 76.7L1334.83 69.6L1349.23 64.4L1348.93 49L1360.43 59L1373.73 50.8Z" fill="#A5A5A3"/>
<path d="M101.152 313.411L75.052 318.111L68.952 314.111L70.252 297.811L76.952 294.511L101.852 303.511C102.252 303.511 102.252 303.511 102.552 303.511C103.152 303.611 103.852 303.311 104.252 302.411C104.252 301.411 104.052 300.711 103.052 300.311L81.252 292.611L91.552 287.611L101.252 290.911H101.552C102.252 291.011 102.852 290.711 103.252 289.811C103.652 289.211 103.052 288.111 102.152 287.811L95.852 285.411L103.552 281.811C104.252 281.511 104.652 280.611 104.352 279.611C104.052 278.611 102.852 278.511 101.852 278.711L94.552 282.411L96.652 276.111C96.952 275.211 96.452 274.211 95.552 273.811C94.852 273.711 93.852 274.011 93.452 274.911L90.152 284.611L79.552 289.611L87.352 267.711C87.652 266.811 87.152 265.711 86.552 265.411C85.552 265.311 84.552 265.511 84.152 266.511L75.552 291.511L68.552 294.811L55.452 285.811L56.052 278.111L75.952 260.711C76.652 260.111 76.752 259.211 76.152 258.511C75.552 257.811 74.552 257.711 73.952 258.311L56.352 273.711L57.252 261.811L64.852 255.411C65.552 254.811 65.552 253.811 65.052 252.811C64.552 251.811 63.452 252.111 62.752 252.611L57.652 257.411L58.252 248.811C58.352 247.811 57.452 247.111 56.452 247.011C55.552 246.911 54.852 247.511 54.752 248.511L54.052 257.111L49.652 252.011C49.152 251.011 48.152 250.911 47.452 251.811C46.752 252.411 46.652 253.311 47.252 254.011L53.752 261.611L52.852 273.411L37.852 255.511C37.252 254.911 35.952 254.811 35.252 255.311C34.552 255.811 34.552 256.911 35.152 257.611L52.552 277.811L51.952 285.511L37.252 292.411L31.152 288.111L26.452 262.011C26.152 261.111 25.252 260.711 24.352 260.611C23.352 260.811 22.952 261.811 22.852 262.711L27.252 285.511L17.752 279.011L15.952 268.911C15.752 268.011 14.752 267.611 13.852 267.511C13.152 267.811 12.452 268.711 12.652 269.711L13.752 276.211L6.75203 271.511C6.15203 271.111 5.15202 271.311 4.45202 271.911C4.15202 272.811 4.35202 273.811 4.95202 274.211L11.952 278.911L5.15203 280.311C4.45203 280.611 3.75203 281.511 4.05203 282.211C3.95203 283.111 4.55203 283.511 5.55203 283.611H5.85203L15.952 281.811L25.352 288.311L2.55203 292.611C1.65203 292.911 0.952028 293.511 1.15203 294.411C1.45203 295.411 2.05203 295.811 2.65203 295.811C2.95203 295.911 2.95202 295.911 2.95202 295.911L29.352 290.811L35.452 295.211L34.152 311.411L27.552 314.411L2.25203 305.811C1.65203 305.411 0.552027 306.011 0.252027 306.611C-0.147973 307.511 0.452025 308.511 1.35203 308.911L23.252 316.711L12.852 321.711L3.15203 318.411C2.25203 318.011 1.25203 318.211 1.15203 319.211C0.752028 320.111 1.35203 321.111 1.95203 321.511L8.55203 323.611L0.852025 327.211C0.252025 327.811 -0.147974 328.711 0.052026 329.711C0.352026 330.011 0.952028 330.411 1.65203 330.411C1.95203 330.511 1.95203 330.511 2.25203 330.211L9.95202 326.611L7.85203 333.211C7.45202 334.111 8.05203 334.811 8.65203 335.111C8.95203 335.211 8.95203 335.211 9.25203 335.211C9.95203 335.211 10.552 335.011 10.952 334.411L14.252 324.711L24.552 319.711L16.852 341.511C16.752 342.511 16.952 343.511 17.952 343.611C18.252 343.911 18.252 343.911 18.552 343.911C19.152 344.011 19.852 343.411 20.252 342.811L28.952 317.411L35.552 314.411L49.052 323.511L48.452 330.811L28.152 348.211C27.452 348.811 27.352 350.111 27.952 350.711C28.552 351.311 29.852 351.511 30.552 350.911L48.052 335.611L47.152 347.111L39.652 353.911C38.952 354.511 38.852 355.411 39.452 356.111C40.052 356.811 40.952 356.911 41.652 356.311L46.852 351.911L46.152 360.511C46.152 361.111 46.652 362.111 47.652 362.211C48.552 362.311 49.652 361.411 49.652 360.811L50.352 352.111L54.752 357.311C55.052 357.611 55.352 358.011 55.652 358.011C56.252 358.111 56.652 357.811 56.952 357.511C57.652 356.911 57.752 355.911 57.152 355.211L50.652 347.411L51.552 335.911L66.552 353.711C66.852 354.111 67.152 354.111 67.852 354.111C68.152 354.211 68.452 354.211 68.852 353.911C69.452 353.311 69.552 352.011 69.052 351.311L51.952 331.111L52.552 323.711L66.852 316.811L73.252 320.811L77.952 347.211C78.252 347.911 78.852 348.611 79.452 348.611C79.852 348.611 79.852 348.611 79.852 348.311C80.752 348.411 81.452 347.511 81.252 346.511L76.952 323.711L86.652 330.211L88.452 340.311C88.752 341.011 89.352 341.311 89.952 341.411H90.352C91.252 341.511 91.952 340.611 91.752 339.611L90.352 332.711L97.352 337.511C97.652 337.811 97.952 337.811 98.252 337.811C98.952 337.911 99.552 337.611 99.652 337.311C100.352 336.411 100.052 335.411 99.452 334.711L92.452 330.011L98.952 328.911C99.952 328.711 100.652 327.811 100.452 326.811C100.152 326.111 99.252 325.411 98.552 325.711L88.452 327.511L79.052 321.011L101.852 316.611C102.852 316.411 103.252 315.411 103.252 314.511C103.052 313.811 102.152 313.111 101.152 313.411ZM66.552 299.511L65.652 311.911L65.452 313.811L63.752 314.711L52.852 319.911L50.852 320.711L49.252 319.611L39.252 312.811L37.752 311.711L37.852 309.811L38.852 297.311L38.952 295.411L40.652 294.611L51.652 289.311L53.252 288.511L55.152 289.611L65.152 296.511L66.752 297.611L66.552 299.511Z" fill="#A5A5A3"/>
<path d="M1147.64 100.738L1147.44 89.6379L1153.44 92.5379C1154.04 92.9379 1155.04 92.7379 1155.64 91.9379C1155.84 91.0379 1155.64 90.0379 1154.74 89.8379L1147.34 85.8379L1146.74 77.1379L1162.24 85.5379C1163.14 85.7379 1164.14 85.4379 1164.44 84.8379C1164.94 83.8379 1164.64 82.8379 1163.84 82.6379L1146.64 73.4379L1146.14 60.1379L1158.84 68.7379L1156.44 53.5379L1168.24 59.7379L1169.24 79.1379C1168.94 79.3379 1169.14 79.6379 1169.24 79.9379C1169.64 80.4379 1170.24 80.8379 1170.94 80.7379C1171.64 80.6379 1172.34 79.8379 1172.54 79.0379L1171.54 61.4379L1179.24 65.6379L1179.64 74.1379C1179.54 74.5379 1179.74 74.8379 1179.84 75.0379C1180.04 75.3379 1180.64 75.7379 1181.34 75.6379C1182.04 75.5379 1182.74 74.8379 1182.64 74.0379L1182.54 67.3379L1192.54 72.3379C1193.34 73.0379 1194.14 72.4379 1194.74 71.7379C1195.14 71.1379 1194.94 70.1379 1193.84 69.6379L1184.14 64.4379L1189.84 60.8379C1190.64 60.3379 1190.64 59.1379 1190.24 58.6379C1189.74 57.8379 1188.84 57.6379 1188.04 58.1379L1180.74 62.7379L1173.14 58.5379L1187.74 49.2379C1188.54 48.7379 1188.74 47.8379 1188.24 47.0379C1187.94 46.5379 1186.84 46.0379 1186.04 46.5379L1169.84 56.8379L1157.94 50.7379L1171.54 44.0379L1157.44 38.5379L1168.84 31.3379L1185.84 40.2379C1186.84 40.7379 1187.74 40.2379 1188.04 39.5379C1188.44 38.9379 1188.24 38.0379 1187.44 37.3379L1171.84 29.4379L1179.14 24.8379L1186.84 28.6379C1187.64 29.2379 1188.54 29.0379 1189.04 27.9379C1189.44 27.3379 1189.14 26.3379 1188.14 25.9379L1182.34 22.7379L1191.84 16.7379C1192.64 16.2379 1192.84 15.3379 1192.34 14.5379C1191.84 13.7379 1190.94 13.5379 1190.04 14.0379L1180.64 20.0379L1180.24 13.4379C1180.24 12.3379 1179.44 11.7379 1178.74 11.7379C1177.64 11.7379 1176.94 12.5379 1177.24 13.5379L1177.34 22.1379L1170.04 26.7379L1169.64 9.2379C1169.34 8.2379 1168.54 7.63791 1167.84 7.63791C1166.74 7.63791 1166.04 8.4379 1166.34 9.4379L1167.14 28.6379L1155.74 35.8379L1156.84 20.7379L1144.94 30.1379L1144.44 16.8379L1160.74 6.5379C1161.54 6.0379 1161.54 4.8379 1161.24 4.3379C1160.64 3.5379 1159.84 3.3379 1158.94 3.8379L1144.14 13.2379L1143.84 4.3379L1151.14 -0.262095C1151.94 -0.762095 1152.14 -1.6621 1151.54 -2.4621C1151.24 -2.9621 1150.24 -3.4621 1149.34 -2.9621L1143.74 0.637906L1143.14 -10.3621C1143.14 -11.5621 1142.44 -12.1621 1141.44 -11.9621C1140.74 -11.8621 1139.94 -11.3621 1140.14 -10.3621L1140.44 0.837903L1134.34 -2.1621C1133.74 -2.5621 1132.74 -2.2621 1132.44 -1.6621C1132.04 -1.0621 1132.14 -0.362099 1132.24 -0.0620985C1132.44 0.237902 1132.64 0.4379 1133.04 0.5379L1140.54 4.5379L1141.14 13.2379L1125.54 4.9379C1124.74 4.7379 1123.74 4.9379 1123.34 5.5379C1122.94 6.2379 1123.04 6.9379 1123.44 7.4379C1123.54 7.7379 1123.54 7.7379 1124.04 7.8379L1141.24 17.0379L1141.64 30.3379L1129.04 21.7379L1131.44 36.8379L1119.54 30.7379L1118.64 11.2379C1118.54 10.5379 1118.04 9.7379 1116.84 9.7379C1116.14 9.7379 1115.54 10.5379 1115.34 11.4379L1116.24 29.0379L1108.64 24.7379L1108.14 16.3379C1108.34 15.4379 1107.64 14.8379 1106.44 14.7379C1105.74 14.8379 1105.14 15.6379 1104.94 16.5379L1105.24 23.1379L1095.24 18.0379C1094.44 17.4379 1093.64 17.9379 1093.04 18.7379C1092.94 19.1379 1093.04 19.8379 1093.14 20.1379C1093.34 20.4379 1093.54 20.6379 1093.94 20.7379L1103.74 25.9379L1098.04 29.5379C1097.24 30.1379 1097.14 31.2379 1097.54 31.7379C1098.04 32.6379 1098.94 32.8379 1099.74 32.2379L1107.04 27.6379L1114.64 31.9379L1100.04 41.1379C1099.24 41.6379 1099.04 42.5379 1099.54 43.3379C1100.04 44.1379 1100.94 44.3379 1101.74 43.8379L1117.94 33.6379L1129.84 39.7379L1116.24 46.4379L1130.34 51.9379L1118.94 59.1379L1101.94 50.1379C1100.94 49.7379 1100.14 50.2379 1099.74 50.8379C1099.34 51.4379 1099.64 52.4379 1100.44 53.0379L1115.74 61.1379L1108.74 65.6379L1101.04 61.7379C1100.24 61.1379 1099.24 61.4379 1098.74 62.4379C1098.34 63.0379 1098.64 64.0379 1099.44 64.6379L1105.44 67.6379L1096.04 73.6379C1095.24 74.1379 1095.04 75.0379 1095.54 75.8379C1096.04 76.6379 1096.94 76.8379 1097.74 76.3379L1107.14 70.3379L1107.54 76.9379C1107.44 77.3379 1107.64 77.6379 1107.84 77.9379C1108.14 78.4379 1108.54 78.5379 1109.04 78.6379C1110.14 78.7379 1110.84 77.9379 1110.54 76.9379L1110.44 68.3379L1117.74 63.6379L1118.24 81.1379C1118.34 81.4379 1118.54 81.7379 1118.74 82.0379C1119.04 82.5379 1119.54 82.6379 1119.94 82.7379C1121.14 82.7379 1121.74 81.9379 1121.54 81.0379L1120.74 61.8379L1132.04 54.6379L1131.04 69.6379L1142.84 60.2379L1143.34 73.6379L1127.14 83.8379C1126.34 84.4379 1126.24 85.5379 1126.64 86.1379C1127.14 86.9379 1128.04 87.1379 1128.84 86.5379L1143.44 77.3379L1144.04 86.0379L1136.74 90.6379C1135.94 91.2379 1135.74 92.0379 1136.24 92.8379C1136.74 93.6379 1137.64 93.9379 1138.44 93.3379L1144.14 89.7379L1144.64 100.838C1144.54 101.238 1144.74 101.538 1144.84 101.738C1145.04 102.038 1145.64 102.438 1146.34 102.338C1147.14 102.238 1147.94 101.738 1147.64 100.738ZM1134.64 62.8379L1135.54 50.5379L1124.04 46.0379L1135.24 40.4379L1133.24 28.4379L1143.64 35.1379L1153.24 27.5379L1152.24 39.9379L1163.84 44.3379L1152.84 49.7379L1154.54 61.9379L1144.44 55.0379L1134.64 62.8379Z" fill="#A5A5A3"/>
<path d="M1348.15 571.727L1362.05 569.927L1359.15 577.827C1358.75 578.727 1359.15 579.827 1360.25 580.527C1361.35 580.727 1362.55 580.227 1362.65 579.127L1366.65 569.327L1377.35 567.427L1369.05 587.827C1368.95 588.927 1369.35 590.127 1370.15 590.527C1371.55 591.027 1372.75 590.527 1372.85 589.427L1382.05 566.827L1398.55 564.427L1389.45 581.327L1407.95 576.327L1401.95 591.927L1377.85 595.727C1377.55 595.327 1377.25 595.627 1376.95 595.827C1376.35 596.327 1375.95 597.227 1376.15 598.027C1376.35 598.927 1377.35 599.627 1378.55 599.727L1400.25 596.227L1395.95 606.327L1385.55 607.927C1384.95 607.927 1384.65 608.127 1384.35 608.427C1384.05 608.627 1383.65 609.427 1383.85 610.327C1384.05 611.227 1385.05 611.927 1385.95 611.727L1394.35 610.727L1389.45 623.827C1388.75 624.827 1389.45 625.827 1390.55 626.427C1391.35 626.827 1392.55 626.427 1392.95 625.027L1398.15 612.227L1403.35 618.827C1404.15 619.727 1405.55 619.627 1406.15 619.127C1407.15 618.427 1407.25 617.327 1406.45 616.327L1399.75 607.927L1404.05 597.827L1417.45 614.727C1418.25 615.727 1419.35 615.827 1420.35 615.127C1420.95 614.627 1421.35 613.227 1420.65 612.327L1405.75 593.527L1411.75 577.927L1421.85 593.927L1426.85 575.727L1437.25 588.827L1428.45 611.227C1428.05 612.527 1428.75 613.527 1429.55 613.927C1430.35 614.227 1431.55 613.827 1432.25 612.727L1440.05 592.327L1446.75 600.727L1443.05 610.827C1442.35 611.927 1442.75 613.127 1444.15 613.527C1444.95 613.927 1446.15 613.527 1446.55 612.127L1449.75 604.527L1458.45 615.527C1459.15 616.427 1460.25 616.527 1461.25 615.827C1462.25 615.127 1462.25 613.927 1461.55 613.027L1452.85 602.027L1460.95 600.727C1462.45 600.527 1463.05 599.527 1462.95 598.627C1462.75 597.227 1461.75 596.527 1460.55 596.927L1449.85 598.227L1443.15 589.827L1464.85 586.927C1466.05 586.427 1466.75 585.427 1466.55 584.527C1466.45 583.127 1465.35 582.427 1464.15 582.827L1440.45 586.327L1429.95 573.227L1448.85 572.527L1435.55 559.027L1452.05 556.727L1467.05 575.527C1467.75 576.427 1469.15 576.327 1469.85 575.827C1470.75 575.027 1470.85 573.927 1470.15 573.027L1456.45 555.727L1467.45 554.127L1474.15 562.627C1474.95 563.527 1476.05 563.727 1476.95 562.927C1477.65 562.427 1478.05 561.127 1477.35 560.127L1472.05 553.527L1485.75 551.427C1487.15 551.327 1487.85 550.227 1487.45 549.027C1487.25 548.227 1486.45 547.227 1485.25 547.727L1471.45 549.527L1474.35 541.627C1474.65 540.727 1474.25 539.627 1473.45 539.227C1472.65 538.827 1471.75 539.027 1471.45 539.227C1471.15 539.527 1470.85 539.727 1470.75 540.327L1466.75 550.127L1456.05 552.027L1464.35 531.627C1464.45 530.527 1464.05 529.327 1463.25 528.927C1462.45 528.527 1461.55 528.727 1460.95 529.227C1460.65 529.427 1460.65 529.427 1460.55 530.027L1451.45 552.627L1434.95 555.027L1443.95 538.127L1425.45 543.127L1431.55 527.527L1455.55 523.727C1456.45 523.627 1457.35 522.827 1457.25 521.427C1457.05 520.527 1456.05 519.827 1454.95 519.727L1433.15 523.227L1437.45 513.127L1447.85 511.527C1449.05 511.627 1449.65 510.527 1449.55 509.127C1449.35 508.227 1448.35 507.527 1447.25 507.427L1439.05 508.727L1444.05 495.727C1444.65 494.627 1443.95 493.727 1442.85 493.027C1442.35 492.927 1441.45 493.127 1441.15 493.327C1440.85 493.627 1440.55 493.827 1440.45 494.427L1435.25 507.227L1430.05 500.627C1429.35 499.727 1427.85 499.827 1427.25 500.327C1426.35 501.027 1426.15 502.127 1426.95 503.127L1433.65 511.527L1429.35 521.627L1415.95 504.727C1415.15 503.727 1414.05 503.627 1413.15 504.327C1412.25 505.027 1412.05 506.227 1412.75 507.127L1427.75 525.927L1421.65 541.527L1411.55 525.527L1406.55 543.727L1396.15 530.627L1404.95 508.227C1405.45 506.927 1404.65 505.927 1403.85 505.627C1403.05 505.227 1401.85 505.627 1401.15 506.727L1393.15 526.827L1386.65 518.727L1390.45 508.627C1391.15 507.527 1390.65 506.327 1389.35 505.927C1388.45 505.527 1387.35 505.927 1386.65 507.027L1383.75 514.927L1375.05 503.927C1374.25 503.027 1373.15 502.927 1372.15 503.627C1371.15 504.327 1371.15 505.527 1371.85 506.427L1380.55 517.427L1372.45 518.727C1371.85 518.727 1371.55 518.927 1371.25 519.227C1370.65 519.727 1370.55 520.227 1370.55 520.827C1370.65 522.227 1371.65 522.927 1372.85 522.527L1383.55 521.227L1390.25 529.627L1368.55 532.527C1368.25 532.827 1367.95 533.027 1367.65 533.327C1367.05 533.827 1366.95 534.327 1366.85 534.927C1367.05 536.327 1368.05 537.027 1369.25 536.627L1393.05 533.127L1403.45 546.227L1384.55 546.927L1397.85 560.427L1381.35 562.827L1366.45 544.027C1365.65 543.027 1364.25 543.127 1363.65 543.627C1362.65 544.427 1362.55 545.527 1363.25 546.427L1376.75 563.427L1365.95 565.327L1359.25 556.827C1358.55 555.927 1357.35 555.727 1356.45 556.527C1355.55 557.327 1355.35 558.327 1356.15 559.327L1361.35 565.927L1347.75 568.027C1347.15 567.927 1346.85 568.227 1346.55 568.427C1346.25 568.727 1345.85 569.527 1346.05 570.427C1346.25 571.227 1346.95 572.227 1348.15 571.727ZM1393.55 550.527L1409.05 550.027L1412.95 535.127L1421.45 548.327L1436.15 544.327L1429.15 558.027L1439.85 568.927L1424.45 569.427L1420.45 584.327L1412.25 571.427L1397.25 575.127L1404.55 561.727L1393.55 550.527Z" fill="#A5A5A3"/>
<path d="M143.094 25.3146L139.494 57.0146L130.194 64.1146L131.494 53.4146C131.894 52.3146 130.894 51.4146 129.794 51.0146C128.894 51.1146 127.794 51.9146 127.794 52.8146L125.894 67.5146L116.994 74.7146L115.394 63.4146L124.494 51.5146L124.594 51.1146C124.894 50.3146 124.494 49.3146 123.894 48.6146C122.794 48.2146 121.894 48.3146 121.094 49.2146L114.594 57.9146L113.094 46.5146L131.894 20.8146L132.394 20.6146C132.694 19.9146 132.294 18.8146 131.694 18.2146C130.694 17.3146 129.294 17.6146 128.894 18.8146L112.294 41.0146L109.994 27.2146L117.394 17.2146C117.394 17.2146 117.394 17.2146 117.594 16.9146C117.894 16.1146 117.794 15.2146 117.194 14.6146C116.094 14.1146 114.794 14.0146 113.994 15.0146L109.194 21.7146L107.594 11.6146C107.694 10.3146 106.594 9.91462 105.694 10.0146C104.394 9.91462 103.594 10.9146 103.894 12.3146L105.094 22.2146L98.8943 17.2146C97.7943 16.7146 96.5943 16.7146 96.0943 17.8146C95.2943 18.8146 95.3943 19.7146 96.2943 20.5146L106.294 27.9146L108.194 41.5146L85.5943 24.8146C84.9943 24.1146 83.5943 24.4146 82.7943 25.4146C82.4943 26.1146 82.3943 27.4146 83.3943 28.2146L108.994 47.0146L110.494 58.4146L101.894 51.9146C100.894 51.1146 99.8943 51.6146 99.0943 52.5146C98.3943 53.1146 98.6943 54.6146 99.2943 55.2146L111.394 63.9146L113.194 75.4146L102.494 71.1146L96.5943 57.6146C96.1943 56.6146 95.0943 56.1146 93.9943 56.6146C93.0943 56.6146 92.5943 58.1146 92.9943 59.2146L97.2943 69.0146L86.4943 64.8146L74.0943 35.3146C73.5943 34.3146 72.4943 33.8146 71.4943 34.3146C70.3943 34.7146 69.9943 35.8146 70.4943 36.9146L81.2943 62.7146L68.5943 57.7146L63.6943 46.2146C63.2943 45.2146 62.0943 44.8146 61.0943 45.2146C60.0943 45.6146 59.5943 46.8146 60.0943 47.8146L63.0943 55.4146L53.7943 51.8146C52.6943 51.3146 51.5943 51.8146 51.1943 52.9146C50.6943 54.0146 51.1943 55.0146 52.2943 55.5146L61.5943 59.2146L54.2943 62.3146C53.2943 62.7146 52.7943 63.9146 53.2943 64.9146C53.7943 65.9146 54.7943 66.4146 55.8943 65.9146L66.7943 61.2146L79.7943 66.4146L54.2943 77.4146C53.2943 77.8146 52.8943 78.9146 53.2943 80.0146C53.7943 81.0146 54.8943 81.5146 55.8943 81.0146L84.9943 68.5146L95.7943 72.8146L85.8943 77.0146C84.8943 77.5146 84.3943 78.6146 84.8943 79.6146C85.2943 80.7146 86.3943 81.1146 87.4943 80.7146L100.994 74.8146L111.394 79.0146L102.594 85.8146L87.7943 84.2146C86.8943 84.3146 85.6943 85.1146 85.7943 86.0146C85.6943 87.3146 86.2943 87.9146 87.3943 88.4146L98.0943 89.6146L89.3943 96.5146L57.5943 92.9146C56.3943 92.8146 55.6943 93.4146 55.2943 94.5146C55.1943 95.8146 56.1943 96.6146 56.8943 96.9146L84.7943 100.315L73.6943 108.815L61.7943 107.415C60.5943 107.015 59.7943 108.015 59.3943 109.115C59.4943 110.015 60.2943 111.215 61.4943 111.215L69.2943 112.215L61.5943 118.615C60.5943 119.015 60.4943 120.315 61.2943 121.515C61.8943 122.215 63.1943 122.215 63.8943 121.615L71.9943 115.415L70.8943 123.515C70.7943 124.815 71.7943 125.615 72.5943 125.515C73.7943 126.015 74.3943 125.415 74.6943 124.715C74.8943 124.315 74.8943 124.315 74.9943 123.915L76.2943 111.915L87.4943 103.515L84.1943 131.015C83.7943 132.115 84.7943 132.915 85.8943 133.415C86.7943 133.315 87.3943 132.715 87.6943 132.015C87.8943 131.615 87.8943 131.615 87.8943 131.615L91.9943 99.7146L100.694 92.8146L99.4943 103.515C99.3943 104.815 99.9943 105.415 101.094 105.915C101.994 105.815 103.094 105.415 103.394 104.615C103.494 104.215 103.494 104.215 103.594 103.915L105.194 89.0146L113.994 82.2146L115.694 93.1146L106.994 105.215C106.194 106.215 106.494 107.615 107.094 108.215C108.194 108.715 109.494 108.815 109.894 107.615L116.294 99.0146L118.394 110.115L98.9943 136.015C98.3943 136.615 98.6943 138.015 99.2943 138.715C100.394 139.215 101.594 139.215 102.494 138.315L118.994 116.015L120.894 129.715L113.694 139.315C112.894 140.215 113.194 141.715 114.294 142.115C114.894 142.815 116.094 142.815 116.894 141.915L121.794 135.215L123.294 145.315C123.394 146.215 124.394 147.015 125.594 147.015C126.194 146.815 126.794 146.215 127.094 145.515C127.094 145.515 127.294 145.115 127.394 144.715L125.794 134.615L132.494 139.515C133.094 140.115 134.494 139.815 135.194 139.215C135.394 138.915 135.394 138.915 135.394 138.915C135.794 137.715 135.394 136.715 134.594 136.415L124.994 129.115L122.794 115.315L145.394 132.115C146.494 132.515 147.394 132.415 148.194 131.515L148.294 131.115C148.594 130.415 148.594 129.515 147.594 128.715L122.094 109.515L120.394 98.5146L129.094 104.915C130.194 105.415 131.394 105.415 131.894 104.315C132.194 104.515 132.394 104.115 132.394 104.115C132.694 103.415 132.194 102.315 131.594 101.715L119.594 93.0146L118.094 81.6146L128.494 85.8146L134.294 99.3146C134.794 100.315 136.194 100.915 137.294 100.515C137.994 99.9146 138.394 98.7146 138.294 97.9146L133.694 87.8146L144.494 92.1146L156.994 121.215C157.494 122.215 158.594 122.715 159.594 122.215C160.694 121.815 161.094 120.715 160.694 119.615L149.694 94.2146L162.694 99.4146L167.394 110.315C167.794 111.315 168.994 111.715 169.994 111.315C170.994 110.915 171.494 109.715 170.994 108.715L167.894 101.415L177.194 105.115C178.294 105.615 179.294 105.115 179.794 104.015C180.194 102.915 179.794 101.815 178.694 101.415L169.394 97.7146L176.794 94.2146C177.294 94.0146 177.794 93.8146 177.994 93.4146C178.094 93.0146 177.994 92.1146 177.794 91.6146C177.394 90.6146 176.294 90.1146 175.194 90.6146L164.194 95.6146L151.194 90.5146L176.794 79.1146C177.294 78.9146 177.794 78.7146 177.894 78.3146C178.094 77.9146 177.994 77.0146 177.794 76.5146C177.294 75.5146 176.194 75.0146 175.194 75.5146L145.994 88.4146L135.194 84.1146L145.394 80.0146C145.894 79.8146 146.194 79.0146 146.394 78.7146C146.494 78.3146 146.694 77.9146 146.394 77.4146C145.994 76.4146 144.494 75.8146 143.794 76.4146L129.994 82.0146L119.594 77.9146L128.494 70.7146L143.194 72.7146C144.094 72.6146 145.094 72.1146 145.394 71.4146C145.494 71.0146 145.494 71.0146 145.194 70.9146C145.594 69.8146 144.794 68.6146 143.494 68.5146L132.794 67.3146L141.694 60.0146L173.694 64.1146C174.594 64.1146 175.194 63.5146 175.494 62.7146C175.694 62.3146 175.694 62.3146 175.694 62.3146C175.794 61.1146 175.294 60.0146 173.994 60.0146L146.094 56.6146L157.194 48.1146L169.194 49.4146C170.494 49.5146 171.094 48.9146 171.394 48.2146L171.594 47.8146C171.594 46.5146 170.694 45.7146 169.894 45.4146L161.594 44.7146L169.694 38.4146C169.794 38.1146 169.994 37.7146 170.094 37.3146C170.294 36.9146 170.194 36.1146 169.994 35.5146C168.994 34.7146 167.894 34.3146 167.094 35.2146L158.994 41.5146L160.094 33.3146C160.194 32.1146 159.194 31.3146 158.494 31.0146C157.194 30.9146 156.394 31.9146 155.894 33.0146L154.594 44.9146L143.894 53.6146L147.094 26.0146C147.194 24.7146 146.294 23.6146 145.394 23.6146C144.194 23.6146 143.094 24.0146 143.094 25.3146Z" fill="#A5A5A3"/>
</g>
<defs>
<filter id="filter0_f_4_2" x="692.68" y="509.42" width="13.94" height="13.94" filterUnits="userSpaceOnUse" color-interpolation-filters="sRGB">
<feFlood flood-opacity="0" result="BackgroundImageFix"/>
<feBlend mode="normal" in="SourceGraphic" in2="BackgroundImageFix" result="shape"/>
<feGaussianBlur stdDeviation="1" result="effect1_foregroundBlur_4_2"/>
</filter>
<filter id="filter1_f_4_2" x="598" y="531" width="14.34" height="14.34" filterUnits="userSpaceOnUse" color-interpolation-filters="sRGB">
<feFlood flood-opacity="0" result="BackgroundImageFix"/>
<feBlend mode="normal" in="SourceGraphic" in2="BackgroundImageFix" result="shape"/>
<feGaussianBlur stdDeviation="1" result="effect1_foregroundBlur_4_2"/>
</filter>
<filter id="filter2_f_4_2" x="207.51" y="253.97" width="14.57" height="14.57" filterUnits="userSpaceOnUse" color-interpolation-filters="sRGB">
<feFlood flood-opacity="0" result="BackgroundImageFix"/>
<feBlend mode="normal" in="SourceGraphic" in2="BackgroundImageFix" result="shape"/>
<feGaussianBlur stdDeviation="1" result="effect1_foregroundBlur_4_2"/>
</filter>
<filter id="filter3_f_4_2" x="185.11" y="540.33" width="18.69" height="18.69" filterUnits="userSpaceOnUse" color-interpolation-filters="sRGB">
<feFlood flood-opacity="0" result="BackgroundImageFix"/>
<feBlend mode="normal" in="SourceGraphic" in2="BackgroundImageFix" result="shape"/>
<feGaussianBlur stdDeviation="1" result="effect1_foregroundBlur_4_2"/>
</filter>
<filter id="filter4_f_4_2" x="118.98" y="76.73" width="19.88" height="19.88" filterUnits="userSpaceOnUse" color-interpolation-filters="sRGB">
<feFlood flood-opacity="0" result="BackgroundImageFix"/>
<feBlend mode="normal" in="SourceGraphic" in2="BackgroundImageFix" result="shape"/>
<feGaussianBlur stdDeviation="1" result="effect1_foregroundBlur_4_2"/>
</filter>
<filter id="filter5_f_4_2" x="251.11" y="496.6" width="22.32" height="22.32" filterUnits="userSpaceOnUse" color-interpolation-filters="sRGB">
<feFlood flood-opacity="0" result="BackgroundImageFix"/>
<feBlend mode="normal" in="SourceGraphic" in2="BackgroundImageFix" result="shape"/>
<feGaussianBlur stdDeviation="1" result="effect1_foregroundBlur_4_2"/>
</filter>
<filter id="filter6_f_4_2" x="831" y="19" width="15.98" height="15.98" filterUnits="userSpaceOnUse" color-interpolation-filters="sRGB">
<feFlood flood-opacity="0" result="BackgroundImageFix"/>
<feBlend mode="normal" in="SourceGraphic" in2="BackgroundImageFix" result="shape"/>
<feGaussianBlur stdDeviation="1" result="effect1_foregroundBlur_4_2"/>
</filter>
<filter id="filter7_f_4_2" x="159.38" y="518.81" width="18.12" height="18.12" filterUnits="userSpaceOnUse" color-interpolation-filters="sRGB">
<feFlood flood-opacity="0" result="BackgroundImageFix"/>
<feBlend mode="normal" in="SourceGraphic" in2="BackgroundImageFix" result="shape"/>
<feGaussianBlur stdDeviation="1" result="effect1_foregroundBlur_4_2"/>
</filter>
<filter id="filter8_f_4_2" x="1026.96" y="118.79" width="20.64" height="20.64" filterUnits="userSpaceOnUse" color-interpolation-filters="sRGB">
<feFlood flood-opacity="0" result="BackgroundImageFix"/>
<feBlend mode="normal" in="SourceGraphic" in2="BackgroundImageFix" result="shape"/>
<feGaussianBlur stdDeviation="1" result="effect1_foregroundBlur_4_2"/>
</filter>
<filter id="filter9_f_4_2" x="978.64" y="159.17" width="13.59" height="13.59" filterUnits="userSpaceOnUse" color-interpolation-filters="sRGB">
<feFlood flood-opacity="0" result="BackgroundImageFix"/>
<feBlend mode="normal" in="SourceGraphic" in2="BackgroundImageFix" result="shape"/>
<feGaussianBlur stdDeviation="1" result="effect1_foregroundBlur_4_2"/>
</filter>
<filter id="filter10_f_4_2" x="1416" y="475" width="16.76" height="16.76" filterUnits="userSpaceOnUse" color-interpolation-filters="sRGB">
<feFlood flood-opacity="0" result="BackgroundImageFix"/>
<feBlend mode="normal" in="SourceGraphic" in2="BackgroundImageFix" result="shape"/>
<feGaussianBlur stdDeviation="1" result="effect1_foregroundBlur_4_2"/>
</filter>
<filter id="filter11_f_4_2" x="543" y="13" width="21.83" height="21.83" filterUnits="userSpaceOnUse" color-interpolation-filters="sRGB">
<feFlood flood-opacity="0" result="BackgroundImageFix"/>
<feBlend mode="normal" in="SourceGraphic" in2="BackgroundImageFix" result="shape"/>
<feGaussianBlur stdDeviation="1" result="effect1_foregroundBlur_4_2"/>
</filter>
<filter id="filter12_f_4_2" x="1414" y="189" width="16.9" height="16.9" filterUnits="userSpaceOnUse" color-interpolation-filters="sRGB">
<feFlood flood-opacity="0" result="BackgroundImageFix"/>
<feBlend mode="normal" in="SourceGraphic" in2="BackgroundImageFix" result="shape"/>
<feGaussianBlur stdDeviation="1" result="effect1_foregroundBlur_4_2"/>
</filter>
<filter id="filter13_f_4_2" x="1007" y="521" width="18.32" height="18.32" filterUnits="userSpaceOnUse" color-interpolation-filters="sRGB">
<feFlood flood-opacity="0" result="BackgroundImageFix"/>
<feBlend mode="normal" in="SourceGraphic" in2="BackgroundImageFix" result="shape"/>
<feGaussianBlur stdDeviation="1" result="effect1_foregroundBlur_4_2"/>
</filter>
<filter id="filter14_f_4_2" x="72.61" y="460.53" width="19.3" height="19.3" filterUnits="userSpaceOnUse" color-interpolation-filters="sRGB">
<feFlood flood-opacity="0" result="BackgroundImageFix"/>
<feBlend mode="normal" in="SourceGraphic" in2="BackgroundImageFix" result="shape"/>
<feGaussianBlur stdDeviation="1" result="effect1_foregroundBlur_4_2"/>
</filter>
<filter id="filter15_f_4_2" x="190.87" y="5.28" width="13.41" height="13.41" filterUnits="userSpaceOnUse" color-interpolation-filters="sRGB">
<feFlood flood-opacity="0" result="BackgroundImageFix"/>
<feBlend mode="normal" in="SourceGraphic" in2="BackgroundImageFix" result="shape"/>
<feGaussianBlur stdDeviation="1" result="effect1_foregroundBlur_4_2"/>
</filter>
<filter id="filter16_f_4_2" x="1251" y="436" width="20.91" height="20.91" filterUnits="userSpaceOnUse" color-interpolation-filters="sRGB">
<feFlood flood-opacity="0" result="BackgroundImageFix"/>
<feBlend mode="normal" in="SourceGraphic" in2="BackgroundImageFix" result="shape"/>
<feGaussianBlur stdDeviation="1" result="effect1_foregroundBlur_4_2"/>
</filter>
</defs>
</svg>
