<svg viewBox="0 0 75 75" fill="none" xmlns="http://www.w3.org/2000/svg">
                <path d="M53.5629 33.609C53.2829 32.744 52.5339 32.113 51.6309 31.98L43.3489 30.779L39.6449 23.273C38.8369 21.64 36.1619 21.64 35.3539 23.273L31.6499 30.779L23.3669 31.98C22.4669 32.113 21.7169 32.744 21.4359 33.609C21.1549 34.478 21.3899 35.425 22.0419 36.062L28.0339 41.904L26.6199 50.152C26.4659 51.048 26.8359 51.959 27.5709 52.494C28.3109 53.029 29.2849 53.101 30.0909 52.676L37.4989 48.781L44.9069 52.676C45.2589 52.86 45.6389 52.949 46.0199 52.949C46.5139 52.949 47.0079 52.795 47.4259 52.494C48.1609 51.959 48.5309 51.049 48.3769 50.152L46.9629 41.904L52.9549 36.062C53.6089 35.426 53.8449 34.479 53.5629 33.609Z" fill="#ED9015"/>
                <path d="M35.3539 23.273L31.6499 30.779L23.3669 31.98C22.4669 32.113 21.7169 32.744 21.4359 33.609C21.1549 34.478 21.3899 35.425 22.0419 36.062L28.0339 41.904L26.6199 50.152C26.4659 51.048 26.8359 51.959 27.5709 52.494C28.3109 53.029 29.2849 53.101 30.0909 52.676L37.4989 48.781V22.049C36.6289 22.049 35.7579 22.457 35.3539 23.273Z" fill="#EAB818"/>
                <path d="M46.9709 41.945L46.9649 41.904L52.9569 36.062C53.6089 35.425 53.8449 34.478 53.5629 33.609C53.2829 32.744 52.5339 32.113 51.6309 31.98L43.3489 30.779L39.6449 23.273C38.8369 21.64 36.1619 21.64 35.3539 23.273L31.6499 30.779L31.5959 30.787L46.9709 41.945Z" fill="#F26606"/>
                <path d="M37.4999 35.072V22.049C36.6289 22.049 35.7579 22.457 35.3539 23.274L31.6499 30.78L31.5959 30.788L37.4999 35.072Z" fill="#ED9015"/>
                <path d="M37.4999 13.197C36.3219 13.197 35.3689 12.244 35.3689 11.068V8.40402C35.3689 7.22802 36.3219 6.27502 37.4999 6.27502C38.6769 6.27502 39.6299 7.22802 39.6299 8.40402V11.068C39.6299 12.244 38.6769 13.197 37.4999 13.197Z" fill="#ED9015"/>
                <path d="M37.4999 68.725C36.3219 68.725 35.3689 67.77 35.3689 66.594V63.93C35.3689 62.754 36.3219 61.801 37.4999 61.801C38.6769 61.801 39.6299 62.754 39.6299 63.93V66.594C39.6299 67.77 38.6769 68.725 37.4999 68.725Z" fill="#ED9015"/>
                <path d="M54.6838 20.316C53.8518 19.484 53.8518 18.134 54.6838 17.302L56.5668 15.419C57.3988 14.587 58.7488 14.587 59.5788 15.419C60.4128 16.251 60.4128 17.601 59.5788 18.433L57.6968 20.316C56.8628 21.148 55.5148 21.148 54.6838 20.316Z" fill="#ED9015"/>
                <path d="M15.4209 59.578C14.5879 58.748 14.5879 57.396 15.4209 56.564L17.3029 54.683C18.1359 53.851 19.4849 53.851 20.3169 54.683C21.1489 55.513 21.1489 56.863 20.3169 57.695L18.4339 59.578C17.6019 60.41 16.2519 60.41 15.4209 59.578Z" fill="#ED9015"/>
                <path d="M61.8008 37.5C61.8008 36.322 62.7538 35.369 63.9318 35.369H66.5938C67.7708 35.369 68.7248 36.322 68.7248 37.5C68.7248 38.676 67.7708 39.629 66.5938 39.629H63.9318C62.7538 39.629 61.8008 38.676 61.8008 37.5Z" fill="#ED9015"/>
                <path d="M6.2749 37.5C6.2739 36.322 7.2279 35.369 8.4059 35.369H11.0679C12.2449 35.369 13.1989 36.322 13.1989 37.5C13.1979 38.676 12.2449 39.629 11.0679 39.629H8.4059C7.2289 39.629 6.2749 38.676 6.2749 37.5Z" fill="#ED9015"/>
                <path d="M54.6838 54.6839C55.5158 53.8519 56.8638 53.8519 57.6968 54.6839L59.5788 56.5649C60.4128 57.3969 60.4118 58.7489 59.5788 59.5789C58.7488 60.4129 57.3988 60.4129 56.5668 59.5789L54.6838 57.6959C53.8518 56.8629 53.8518 55.5139 54.6838 54.6839Z" fill="#ED9015"/>
                <path d="M15.4208 15.42C16.2518 14.588 17.6018 14.588 18.4338 15.42L20.3168 17.303C21.1488 18.135 21.1488 19.485 20.3168 20.317C19.4848 21.149 18.1358 21.149 17.3028 20.317L15.4208 18.434C14.5878 17.602 14.5888 16.252 15.4208 15.42Z" fill="#ED9015"/>
            </svg>